<svg width="208" height="208" viewBox="0 0 208 208" fill="none" xmlns="http://www.w3.org/2000/svg">
<g clip-path="url(#clip0)">
<path d="M147.259 121.058L121.058 147.259L180.921 207.122L207.118 180.921L147.259 121.058ZM147.259 128.212L199.968 180.921L180.921 199.968L128.212 147.259L147.259 128.212Z" fill="white"/>
<path d="M86.068 59.867L26.208 0L0.0039978 26.204L59.864 86.078L86.068 59.867ZM26.208 7.161L78.91 59.867L59.863 78.914L7.161 26.208L26.208 7.161Z" fill="white"/>
<path d="M103.712 155.025L152.259 106.467L100.58 54.789L52.026 103.336L76.087 127.393L68.078 135.395C55.699 134.568 44.912 144.024 43.914 156.235L43.714 158.755L65.105 160.501L65.116 164.466C64.973 164.563 64.826 164.684 64.683 164.817C63.055 166.453 63.055 169.108 64.683 170.747C65.481 171.545 66.53 171.982 67.653 171.982C68.773 171.982 69.825 171.545 70.62 170.747C71.411 169.96 71.848 168.897 71.848 167.777C71.848 166.66 71.411 165.615 70.62 164.817C70.477 164.674 70.33 164.556 70.176 164.456L70.165 160.917L89.043 162.47L89.24 159.936C89.791 153.286 87.393 146.741 82.662 142.002C80.225 139.565 77.272 137.722 74.033 136.605L79.67 130.961L103.712 155.025ZM79.075 145.577C82.16 148.666 83.96 152.674 84.221 156.986L49.338 154.137C51.271 145.77 59.234 139.761 68.012 140.462C72.193 140.803 76.119 142.628 79.075 145.577ZM100.58 61.953L145.108 106.467L103.711 147.871L59.187 103.336L100.58 61.953Z" fill="white"/>
</g>
<defs>
<clipPath id="clip0">
<rect width="207.122" height="207.122" fill="white"/>
</clipPath>
</defs>
</svg>
